<svg width="354" height="244" viewBox="0 0 354 244" fill="none" xmlns="http://www.w3.org/2000/svg">
<path d="M1.47769 215.81C-4.04316 234.213 7.22858 242.264 13.5546 243.99H49.7851C50.9353 239.964 49.9289 237.664 45.7595 234.213C42.8841 231.913 29.657 227.312 45.7595 215.81C59.5616 207.184 77.3894 200.858 86.5908 193.382C97.5175 185.331 108.077 177.64 126.847 175.554C152.726 172.679 163.078 171.528 169.404 169.228C175.73 166.928 191.832 160.027 191.832 160.027C189.532 164.052 185.74 176.818 184.356 180.73C171.129 218.111 188.382 240.539 202.184 243.99H240.715C240.715 240.539 238.184 233.063 230.363 230.763C221.162 228.056 216.277 218.577 219.436 212.36C237.264 177.279 262.127 151.283 270.619 120.346C278.67 91.0161 315.476 71.463 335.029 68.0125C343.524 66.5133 349.406 55.3605 352.282 50.7598C354.582 47.0792 353.24 43.092 352.282 41.5584C347.609 34.0822 332.154 39.8331 321.802 27.7563C311.323 15.5304 297.073 11.6538 284.421 11.6538C272.92 -7.89922 255.092 -0.423085 253.942 16.2545C230.363 19.705 217.136 37.5328 187.806 39.258C169.979 40.3067 157.327 37.1877 131.448 39.258C41.1588 49.0345 33.1076 119.195 32.5325 129.547C31.6698 145.074 27.3567 164.627 20.4556 178.43C14.4172 190.506 8.37875 192.807 1.47769 215.81Z" fill="url(#paint0_linear_9_46)"/>
<path d="M149.275 181.88C149.275 181.88 113.62 182.455 98.6677 195.682C104.419 207.759 106.144 211.785 108.444 223.286C111.895 238.814 126.847 243.99 126.847 243.99H166.528C166.528 243.99 172.854 237.089 152.151 227.887C148.125 225.587 144.675 219.836 144.675 215.81C143.525 204.309 149.275 181.88 149.275 181.88Z" fill="url(#paint1_linear_9_46)"/>
<path d="M250.491 178.43C259.693 165.202 268.319 152.551 278.67 122.646C282.696 156.001 306.85 183.605 306.85 183.605C306.85 183.605 322.377 199.708 330.428 215.235C335.045 224.138 337.905 227.312 340.78 229.612C355.157 234.788 352.857 243.99 352.857 243.99H322.377C322.377 243.99 314.326 241.114 309.725 230.763C306.85 226.162 299.949 216.385 280.396 206.034C280.396 206.034 256.937 196.832 250.491 178.43Z" fill="url(#paint2_linear_9_46)"/>
<path d="M98.3658 138.536C98.3658 140.746 100.157 142.536 102.366 142.536C104.575 142.536 106.366 140.746 106.366 138.536C106.366 136.327 104.575 134.536 102.366 134.536C100.157 134.536 98.3658 136.327 98.3658 138.536ZM145.173 93.1057C145.173 95.3149 146.964 97.1057 149.173 97.1057C151.382 97.1057 153.173 95.3149 153.173 93.1057C153.173 90.8966 151.382 89.1057 149.173 89.1057C146.964 89.1057 145.173 90.8966 145.173 93.1057ZM102.888 139.075L149.696 93.6439L148.651 92.5675L101.843 137.998L102.888 139.075Z" fill="white"/>
<path d="M149.173 93.1057L203.633 93.1801" stroke="white" stroke-width="1.5"/>
<path d="M200.241 93.1057C200.241 95.3149 202.032 97.1057 204.241 97.1057C206.45 97.1057 208.241 95.3149 208.241 93.1057C208.241 90.8966 206.45 89.1057 204.241 89.1057C202.032 89.1057 200.241 90.8966 200.241 93.1057ZM204.565 93.7819L238.983 77.2616L238.333 75.9093L203.916 92.4296L204.565 93.7819Z" fill="white"/>
<path d="M243.838 64.4099L246.278 69.6146L250.739 72.4612L246.278 75.3077L243.838 80.5124L241.398 75.3077L236.937 72.4612L241.398 69.6146L243.838 64.4099Z" fill="white"/>
<defs>
<linearGradient id="paint0_linear_9_46" x1="207.082" y1="247.189" x2="117.897" y2="65.0534" gradientUnits="userSpaceOnUse">
<stop stop-color="#EF9942"/>
<stop offset="0.466397" stop-color="#C75481"/>
<stop offset="1" stop-color="#803CBF"/>
</linearGradient>
<linearGradient id="paint1_linear_9_46" x1="207.082" y1="247.189" x2="117.897" y2="65.0534" gradientUnits="userSpaceOnUse">
<stop stop-color="#EF9942"/>
<stop offset="0.466397" stop-color="#C75481"/>
<stop offset="1" stop-color="#803CBF"/>
</linearGradient>
<linearGradient id="paint2_linear_9_46" x1="207.082" y1="247.189" x2="117.897" y2="65.0534" gradientUnits="userSpaceOnUse">
<stop stop-color="#EF9942"/>
<stop offset="0.466397" stop-color="#C75481"/>
<stop offset="1" stop-color="#803CBF"/>
</linearGradient>
</defs>
</svg>
